<svg width="148" height="137" viewBox="0 0 148 137" fill="none" xmlns="http://www.w3.org/2000/svg">
<path fill-rule="evenodd" clip-rule="evenodd" d="M50.3325 56C51.5558 56 52.4851 57.0906 52.451 58.3134C52.446 58.4922 52.4435 58.6715 52.4435 58.8514C52.4435 70.0112 62.0948 79.058 74.0004 79.058C85.9059 79.058 95.5572 70.0112 95.5572 58.8514C95.5572 58.6715 95.5547 58.4922 95.5497 58.3134C95.5156 57.0906 96.4449 56 97.6682 56H145.653C146.758 56 147.653 56.8954 147.653 58V100.948C147.653 103.738 145.24 106 142.264 106H5.73688C2.76049 106 0.347656 103.738 0.347656 100.948V58C0.347656 56.8954 1.24309 56 2.34766 56H50.3325Z" fill="#B6D8FE"/>
<path fill-rule="evenodd" clip-rule="evenodd" d="M97.3536 55.6886C97.3536 68.5863 86.898 79.0419 74.0004 79.0419C61.1027 79.0419 50.6471 68.5863 50.6471 55.6886V55.6886C50.6471 55.0112 50.1109 54.443 49.4336 54.443H3.13537C1.76656 54.443 0.802248 53.0989 1.24079 51.8023L17.5221 3.66261C18.2625 1.47343 20.3163 0 22.6272 0L125.373 0C127.684 0 129.738 1.47343 130.479 3.66261L146.76 51.8023C147.198 53.0989 146.234 54.443 144.865 54.443H98.5671C97.8898 54.443 97.3536 55.0112 97.3536 55.6886V55.6886Z" fill="#A9C9F2"/>
<path fill-rule="evenodd" clip-rule="evenodd" d="M93.9364 57.4037C93.9364 67.3701 85.0109 77.2458 74.0007 77.2458C62.9905 77.2458 54.0649 67.3701 54.0649 57.4037C54.0649 57.0808 54.0743 54.9635 54.0928 54.6448H16.5156L31.1767 18.9982C31.8088 17.3065 33.562 16.168 35.5348 16.168H112.467C114.439 16.168 116.193 17.3065 116.825 18.9982L131.486 54.6448H93.9085C93.927 54.9635 93.9364 57.0808 93.9364 57.4037Z" fill="#E7EFFF"/>
<g style="mix-blend-mode:multiply">
<ellipse cx="73.5" cy="131.239" rx="50.5" ry="5" fill="#ECF3FD"/>
</g>
</svg>
