<svg xmlns="http://www.w3.org/2000/svg" width="251" height="133" viewBox="0 0 251 133">
    <defs>
        <linearGradient id="agyf20shra" x1="50.004%" x2="50.004%" y1="-13.241%" y2="143.882%">
            <stop offset="0%" stop-color="#FFF"/>
            <stop offset="42.31%" stop-color="#A1D2FD"/>
            <stop offset="100%" stop-color="#1B91FB"/>
        </linearGradient>
        <linearGradient id="beh2whewtb" x1="50.033%" x2="50.033%" y1="219.648%" y2="-50.893%">
            <stop offset="0%" stop-color="#FFF"/>
            <stop offset="10.62%" stop-color="#FAFCFF"/>
            <stop offset="23.85%" stop-color="#EAF5FF"/>
            <stop offset="38.48%" stop-color="#D1E9FE"/>
            <stop offset="54.11%" stop-color="#ADD8FE"/>
            <stop offset="70.55%" stop-color="#80C2FD"/>
            <stop offset="87.39%" stop-color="#49A7FC"/>
            <stop offset="100%" stop-color="#1B91FB"/>
        </linearGradient>
        <linearGradient id="c6xcuoijxc" x1="50.033%" x2="50.033%" y1="219.648%" y2="-50.893%">
            <stop offset="0%" stop-color="#FFF"/>
            <stop offset="10.62%" stop-color="#FAFCFF"/>
            <stop offset="23.85%" stop-color="#EAF5FF"/>
            <stop offset="38.48%" stop-color="#D1E9FE"/>
            <stop offset="54.11%" stop-color="#ADD8FE"/>
            <stop offset="70.55%" stop-color="#80C2FD"/>
            <stop offset="87.39%" stop-color="#49A7FC"/>
            <stop offset="100%" stop-color="#1B91FB"/>
        </linearGradient>
        <linearGradient id="4c35dl3ajd" x1="-.027%" x2="96.841%" y1="49.922%" y2="49.922%">
            <stop offset="0%" stop-color="#55A5FE"/>
            <stop offset="100%" stop-color="#1267C6"/>
        </linearGradient>
        <linearGradient id="wh3684hele" x1="50.033%" x2="50.033%" y1="219.648%" y2="-50.893%">
            <stop offset="0%" stop-color="#FFF"/>
            <stop offset="10.62%" stop-color="#FAFCFF"/>
            <stop offset="23.85%" stop-color="#EAF5FF"/>
            <stop offset="38.48%" stop-color="#D1E9FE"/>
            <stop offset="54.11%" stop-color="#ADD8FE"/>
            <stop offset="70.55%" stop-color="#80C2FD"/>
            <stop offset="87.39%" stop-color="#49A7FC"/>
            <stop offset="100%" stop-color="#1B91FB"/>
        </linearGradient>
    </defs>
    <g fill="none" fill-rule="evenodd">
        <path fill="#E8ECF1" d="M150.535 37.635c7.444-1.49 12.553-5.112 15.33-10.865 1.61.416 4.417 1.939 11.218 6.327.634.409.233 1.518-1.2 3.328 2.09 1.957 2.857 3.302 2.3 4.035-4.82 6.358-8.573 8.597-12.804 8.604-4.332-1.221-9.28-5.03-14.844-11.429z" opacity=".369"/>
        <path fill="url(#agyf20shra)" d="M233.98 113.564c-.21 3.081-1.971 6.092-5.105 8.926-2.887 2.657-6.901 5.172-11.866 7.51H35.538c-3.662-2.444-6.831-5.42-9.472-9.14-.95-1.31-1.83-2.691-2.605-4.108C.856 75.378 54.586-3.758 72.649.139c8.31 1.77 3.38 19.837 17.041 28.622C115.5 45.339 164.9 1.166 179.476 14.45c7.78 7.12-5.247 20.829-.388 41.834 8.24 35.707 56.02 40.312 54.892 57.28z" opacity=".18"/>
        <g opacity=".26">
            <path fill="url(#beh2whewtb)" d="M11.39 10.845H5.028S0 11.05 0 15.62v6.294s-.104 5.272 4.825 5.272c0 0 1.744 1.02 1.744 2.95v11.372s-.308 1.826 1.64 1.826c0 0 5.69.832 2.87-4.633 2.132-2.064.241-4.18.241-4.18s1.92-1.722.07-4.08c0 0 1.644-2.133 1.644-3.352l.1-14.518c0-.002.31-1.726-1.744-1.726zm-7.406 11.39c0 .757-.651 1.373-1.462 1.373-.808 0-1.46-.616-1.46-1.373v-6.627c0-.757.652-1.37 1.46-1.37.81 0 1.462.613 1.462 1.37v6.627z" transform="rotate(-23 90.398 16.165)"/>
            <path fill="url(#c6xcuoijxc)" d="M38.76 13.91V.722c0-1.726-1.494.189-1.494.189-7.067 10.737-21.65 9.876-21.65 9.876-1.722 0-1.449 1.436-1.449 1.436V24.68c0 1.436 1.537 1.436 1.537 1.436 16.306 0 21.86 10.08 21.86 10.08s1.285 1.564 1.197-.065V22.966c1.65-.87 2.79-2.56 2.79-4.53 0-1.966-1.142-3.655-2.79-4.525z" transform="rotate(-23 90.398 16.165)"/>
        </g>
        <g transform="translate(68 42)">
            <path fill="url(#4c35dl3ajd)" d="M2 0h86c1.105 0 2 .895 2 2v56c0 1.105-.895 2-2 2H2c-1.105 0-2-.895-2-2V2C0 .895.895 0 2 0z"/>
            <path fill="#FFF" d="M5 3h80c1.105 0 2 .895 2 2v4c0 1.105-.895 2-2 2H5c-1.105 0-2-.895-2-2V5c0-1.105.895-2 2-2z" opacity=".4"/>
            <path fill="#E0EFFB" d="M9 41h32c.552 0 1 .448 1 1s-.448 1-1 1H9c-.552 0-1-.448-1-1s.448-1 1-1zM9 35h42c.552 0 1 .448 1 1s-.448 1-1 1H9c-.552 0-1-.448-1-1s.448-1 1-1zM9 23h42c.552 0 1 .448 1 1s-.448 1-1 1H9c-.552 0-1-.448-1-1s.448-1 1-1zM9 29h42c.552 0 1 .448 1 1s-.448 1-1 1H9c-.552 0-1-.448-1-1s.448-1 1-1zM9 17h42c.552 0 1 .448 1 1s-.448 1-1 1H9c-.552 0-1-.448-1-1s.448-1 1-1z"/>
            <circle cx="9" cy="51" r="1" fill="#E1EFFB"/>
            <circle cx="14" cy="51" r="1" fill="#E1EFFB"/>
            <circle cx="24" cy="51" r="1" fill="#E1EFFB"/>
            <circle cx="19" cy="51" r="1" fill="#E1EFFB"/>
        </g>
        <g fill-rule="nonzero">
            <path fill="#FFBB04" d="M5.256 17.482H3.102l-.423.547v1.631c0 .168.136.305.304.305h1.662c.133 0 .25-.086.29-.214l.542-1.722-.221-.547z" transform="scale(-1 1) rotate(-33 44.331 298.466)"/>
            <path fill="#DEECF1" d="M8.153 9.667L7.32 12.164 5.477 18.029 2.679 18.029 2.679 11.261 2.679 8.698z" transform="scale(-1 1) rotate(-33 44.331 298.466)"/>
            <path fill="#CBE5E8" d="M8.153 9.667l-.833 2.497-1.274 4.055-1.111-.03c-.23 0-.417-.186-.417-.416v-6.75l3.635.644z" transform="scale(-1 1) rotate(-33 44.331 298.466)"/>
            <path fill="#FFDE04" d="M17.531 5.721H16.25v5.953h1.281c1.13 0 2.047-.916 2.047-2.047V7.768c0-1.13-.917-2.047-2.047-2.047z" transform="scale(-1 1) rotate(-33 44.331 298.466)"/>
            <path fill="#83F7B4" d="M17.39.016h-1.794c-.02 0-.04.004-.059.012l-.96 3.178v12.625l.96 1.536c.018.008.039.013.059.013h1.794c.078 0 .141-.063.141-.142V.157c0-.078-.063-.141-.141-.141z" transform="scale(-1 1) rotate(-33 44.331 298.466)"/>
            <path fill="#CBE5E8" d="M2.679 11.261v.919l.326.033c1.375.141 2.726.435 4.027.868l.288-.917.833-2.497-5.474-.97v2.564z" transform="scale(-1 1) rotate(-33 44.331 298.466)"/>
            <path fill="#A8D3D8" d="M4.518 9.023v3.409c.853.159 1.693.376 2.514.649l.288-.917.833-2.497-3.635-.644z" transform="scale(-1 1) rotate(-33 44.331 298.466)"/>
            <path fill="#FFDE04" d="M3.102 6.134c-.27.028-.541.05-.814.067-.643.039-1.215.325-1.626.763C.251 7.4 0 7.99 0 8.634v.128c0 1.288 1.003 2.354 2.288 2.433.273.017.544.039.814.066l1.112-1.04V6.633l-1.112-.5z" transform="scale(-1 1) rotate(-33 44.331 298.466)"/>
            <path fill="#D6BC66" d="M3.68 9.742c-.27-.028-.542-.05-.814-.067C1.58 9.596.577 8.531.577 7.242v-.128l.002-.057C.217 7.483 0 8.034 0 8.633v.129c0 1.288 1.003 2.354 2.288 2.433.273.017.544.039.814.066l1.112-1.04v-.416c-.178-.023-.356-.045-.534-.063z" transform="scale(-1 1) rotate(-33 44.331 298.466)"/>
            <path fill="#7CD4A9" d="M15.62 15.308c-.028 0-.056-.004-.081-.012l-.961-1.103v1.638l.96 1.536c.017.008.037.013.058.013h1.794c.078 0 .14-.063.14-.142v-1.93h-1.91z" transform="scale(-1 1) rotate(-33 44.331 298.466)"/>
            <path fill="#EEF5F6" d="M15.537.028v17.34c-.015-.007-.029-.017-.04-.029l-.441-.436c-3.23-3.193-7.45-5.18-11.954-5.642V6.134c4.504-.462 8.723-2.448 11.954-5.642l.44-.436c.012-.012.026-.021.041-.028z" transform="scale(-1 1) rotate(-33 44.331 298.466)"/>
            <path fill="#CDE5F8" d="M3.102 9.667h3.135c.22 0 .398-.179.398-.399V8.127c0-.22-.178-.398-.398-.398H3.102v1.938zM8.766 9.667h1.542c.232 0 .42-.189.42-.42V8.148c0-.232-.188-.42-.42-.42H8.766c-.232 0-.42.188-.42.42v1.097c0 .232.188.42.42.42z" transform="scale(-1 1) rotate(-33 44.331 298.466)"/>
            <path fill="#83FFB7" d="M20.737 4.434c-.098 0-.196-.04-.267-.119-.132-.147-.12-.374.027-.506l1.439-1.293c.147-.133.374-.12.507.027.132.147.12.374-.027.506l-1.439 1.293c-.068.062-.154.092-.24.092zM22.503 7.178c-.15 0-.29-.095-.34-.246-.063-.188.04-.391.228-.453l1.232-.407c.188-.062.39.04.453.228.062.188-.04.391-.228.453l-1.232.407c-.038.012-.076.018-.113.018zM22.176 14.977c-.086 0-.171-.03-.24-.092l-1.439-1.293c-.147-.132-.159-.36-.027-.507.133-.147.36-.16.507-.027l1.439 1.293c.147.133.16.36.027.507-.071.079-.169.119-.267.119zM23.735 11.347c-.037 0-.075-.006-.112-.018l-1.232-.407c-.188-.062-.29-.265-.228-.453.062-.188.265-.29.453-.228l1.232.407c.188.062.29.265.228.453-.05.15-.19.246-.34.246z" transform="scale(-1 1) rotate(-33 44.331 298.466)"/>
            <path fill="#DEECF1" d="M3.68 9.742c-.192-.02-.385-.036-.578-.05v1.57c4.504.462 8.723 2.448 11.954 5.641l.44.436c.012.012.026.022.041.028v-2.076C12.32 12.152 8.14 10.2 3.68 9.741z" transform="scale(-1 1) rotate(-33 44.331 298.466)"/>
        </g>
        <ellipse cx="22.289" cy="22.499" fill="url(#wh3684hele)" opacity=".26" rx="22.049" ry="22.499" transform="translate(191 28)"/>
        <path fill="#FFF" fill-rule="nonzero" d="M222.145 42.592h-.864v-1.728c0-.477-.387-.864-.864-.864h-.864c-.477 0-.864.387-.864.864v1.728h-8.64v-1.728c0-.477-.388-.864-.865-.864h-.864c-.477 0-.864.387-.864.864v1.728h-.864c-1.429 0-2.592 1.163-2.592 2.592v12.961c0 1.43 1.163 2.592 2.592 2.592h15.553c1.43 0 2.592-1.163 2.592-2.592v-12.96c0-1.43-1.163-2.593-2.592-2.593zm0 16.417h-15.553c-.477 0-.864-.387-.864-.864V47.811h17.281v10.334c0 .477-.387.864-.864.864z"/>
        <path fill="#1B91FB" d="M251 132c0 .281-.18.531-.449.719-.269.187-.672.281-1.12.281H2.57c-.852 0-1.57-.438-1.57-1 0-.281.18-.531.449-.719.269-.187.672-.281 1.12-.281H249.43c.852 0 1.57.438 1.57 1z" opacity=".42"/>
    </g>
</svg>
