<svg xmlns="http://www.w3.org/2000/svg" width="248" height="134" viewBox="0 0 248 134">
    <defs>
        <linearGradient id="1lws6fylsa" x1="50.004%" x2="50.004%" y1="-13.241%" y2="143.882%">
            <stop offset="0%" stop-color="#FFF"/>
            <stop offset="42.31%" stop-color="#A1D2FD"/>
            <stop offset="100%" stop-color="#1B91FB"/>
        </linearGradient>
        <linearGradient id="m5d6e5wslb" x1="50.033%" x2="50.033%" y1="219.648%" y2="-50.893%">
            <stop offset="0%" stop-color="#FFF"/>
            <stop offset="10.62%" stop-color="#FAFCFF"/>
            <stop offset="23.85%" stop-color="#EAF5FF"/>
            <stop offset="38.48%" stop-color="#D1E9FE"/>
            <stop offset="54.11%" stop-color="#ADD8FE"/>
            <stop offset="70.55%" stop-color="#80C2FD"/>
            <stop offset="87.39%" stop-color="#49A7FC"/>
            <stop offset="100%" stop-color="#1B91FB"/>
        </linearGradient>
        <linearGradient id="uult2bolfc" x1="49.964%" x2="49.964%" y1="96.054%" y2="-111.348%">
            <stop offset="0%" stop-color="#FFF"/>
            <stop offset="15.73%" stop-color="#D4EAFE"/>
            <stop offset="46.28%" stop-color="#85C4FD"/>
            <stop offset="71.5%" stop-color="#4CA9FC"/>
            <stop offset="90.07%" stop-color="#2897FB"/>
            <stop offset="100%" stop-color="#1B91FB"/>
        </linearGradient>
        <linearGradient id="jgf26j0d6d" x1="50.177%" x2="50.177%" y1="100.027%" y2="-.008%">
            <stop offset="0%" stop-color="#1B91FB"/>
            <stop offset="9.93%" stop-color="#2897FB"/>
            <stop offset="28.5%" stop-color="#4CA9FC"/>
            <stop offset="53.72%" stop-color="#85C4FD"/>
            <stop offset="84.27%" stop-color="#D4EAFE"/>
            <stop offset="100%" stop-color="#FFF"/>
        </linearGradient>
        <linearGradient id="p970df67ke" x1="50.177%" x2="50.177%" y1="100.027%" y2="-.008%">
            <stop offset="0%" stop-color="#1B91FB"/>
            <stop offset="9.93%" stop-color="#2897FB"/>
            <stop offset="28.5%" stop-color="#4CA9FC"/>
            <stop offset="53.72%" stop-color="#85C4FD"/>
            <stop offset="84.27%" stop-color="#D4EAFE"/>
            <stop offset="100%" stop-color="#FFF"/>
        </linearGradient>
        <linearGradient id="tzpa3vpu4f" x1="50.177%" x2="50.177%" y1="100.027%" y2="-.008%">
            <stop offset="0%" stop-color="#1B91FB"/>
            <stop offset="9.93%" stop-color="#2897FB"/>
            <stop offset="28.5%" stop-color="#4CA9FC"/>
            <stop offset="53.72%" stop-color="#85C4FD"/>
            <stop offset="84.27%" stop-color="#D4EAFE"/>
            <stop offset="100%" stop-color="#FFF"/>
        </linearGradient>
    </defs>
    <g fill="none" fill-rule="evenodd">
        <g>
            <g>
                <g>
                    <g>
                        <path fill="#E8ECF1" d="M149.73 41.913c6.229-4.256 9.495-9.558 9.797-15.906 1.635-.244 4.795.06 12.722 1.44.739.128.804 1.3.196 3.515 2.673.981 3.898 1.915 3.674 2.803-1.937 7.696-4.5 11.205-8.368 12.854-4.436.563-10.444-1.005-18.021-4.706z" opacity=".369" transform="translate(-1094 -565) translate(1021 499) translate(73 66) rotate(23 162.937 36.33)"/>
                        <path fill="url(#1lws6fylsa)" d="M232.289 112.863c-.212 3.063-1.976 6.055-5.115 8.871-2.893 2.64-6.915 5.14-11.889 7.464H33.465c-3.67-2.43-6.844-5.387-9.49-9.083-.953-1.303-1.835-2.676-2.61-4.084C-1.285 74.912 52.55-3.735 70.646.138c8.325 1.76 3.387 19.714 17.074 28.445C113.58 45.06 163.074 1.16 177.68 14.361c7.796 7.076-5.256 20.7-.388 41.576 8.255 35.486 56.127 40.063 54.998 56.926z" opacity=".18" transform="translate(-1094 -565) translate(1021 499) translate(73 66)"/>
                        <g fill="url(#m5d6e5wslb)" opacity=".26" transform="translate(-1094 -565) translate(1021 499) translate(73 66) translate(184.862 31.786)">
                            <circle cx="20.493" cy="20.493" r="20.493"/>
                        </g>
                        <path fill="#1B91FB" d="M247.597 131.673c0 .47-.177.889-.444 1.202-.266.314-.666.47-1.11.47H1.555c-.844 0-1.555-.731-1.555-1.672 0-.47.178-.889.444-1.202.267-.314.667-.471 1.11-.471h244.489c.844 0 1.554.732 1.554 1.673z" opacity=".42" transform="translate(-1094 -565) translate(1021 499) translate(73 66)"/>
                        <g>
                            <path fill="url(#uult2bolfc)" d="M0 5c0-2.762 2.248-5 5.007-5h45.578c2.766 0 5.007 2.245 5.007 5V66.1c0 2.761-2.248 5-5.007 5H5.007C2.242 71.1 0 68.855 0 66.1V5z" opacity=".22" transform="translate(-1094 -565) translate(1021 499) translate(73 66) translate(2.51 13.384)"/>
                            <path fill="#1B91FB" d="M55.594 37.366v29.513c0 2.165-2.795 3.946-6.214 3.946H6.214C2.794 70.825 0 69.044 0 66.879V46.792c3.162-1.918 7.133-3.507 11.325-3.233 5.846.356 5.92 3.864 11.692 4.85 11.325 1.918 23.274-9.372 32.577-11.043z" opacity=".08" transform="translate(-1094 -565) translate(1021 499) translate(73 66) translate(2.51 13.384)"/>
                            <path fill="url(#jgf26j0d6d)" d="M31.786 7.947c0-.693.572-1.255 1.25-1.255h10.048c.69 0 1.25.557 1.25 1.255 0 .693-.572 1.254-1.25 1.254H33.035c-.69 0-1.249-.557-1.249-1.254z" opacity=".22" transform="translate(-1094 -565) translate(1021 499) translate(73 66) translate(2.51 13.384)"/>
                            <path fill="#FFF" d="M30.95 7.11c0-.693.571-1.255 1.249-1.255h10.049c.69 0 1.249.557 1.249 1.255 0 .693-.572 1.255-1.25 1.255H32.2c-.69 0-1.25-.557-1.25-1.255z" transform="translate(-1094 -565) translate(1021 499) translate(73 66) translate(2.51 13.384)"/>
                            <path fill="url(#jgf26j0d6d)" d="M31.786 15.475c0-.693.572-1.255 1.25-1.255h10.048c.69 0 1.25.557 1.25 1.255 0 .693-.572 1.255-1.25 1.255H33.035c-.69 0-1.249-.557-1.249-1.255z" opacity=".22" transform="translate(-1094 -565) translate(1021 499) translate(73 66) translate(2.51 13.384)"/>
                            <path fill="#FFF" d="M5.855 31.368c0-.693.562-1.255 1.253-1.255h35.136c.692 0 1.253.557 1.253 1.255 0 .693-.561 1.255-1.253 1.255H7.108c-.692 0-1.253-.557-1.253-1.255zM30.95 14.638c0-.693.571-1.254 1.249-1.254h10.049c.69 0 1.249.557 1.249 1.254 0 .693-.572 1.255-1.25 1.255H32.2c-.69 0-1.25-.557-1.25-1.255z" transform="translate(-1094 -565) translate(1021 499) translate(73 66) translate(2.51 13.384)"/>
                            <path fill="url(#p970df67ke)" d="M6.692 9.535c0-1.108.887-2.007 2.004-2.007H23.09c1.107 0 2.004.891 2.004 2.007v6.024c0 1.108-.887 2.007-2.004 2.007H8.696c-1.107 0-2.004-.89-2.004-2.007V9.535z" opacity=".22" transform="translate(-1094 -565) translate(1021 499) translate(73 66) translate(2.51 13.384)"/>
                            <path fill="#FFF" d="M5.855 7.863c0-1.109.888-2.008 2.005-2.008h14.393c1.107 0 2.005.891 2.005 2.008v6.023c0 1.108-.888 2.007-2.005 2.007H7.86c-1.107 0-2.005-.89-2.005-2.007V7.863z" transform="translate(-1094 -565) translate(1021 499) translate(73 66) translate(2.51 13.384)"/>
                            <path fill="url(#tzpa3vpu4f)" d="M5.855 23.003c0-.693.562-1.255 1.253-1.255h35.136c.692 0 1.253.557 1.253 1.255 0 .693-.561 1.255-1.253 1.255H7.108c-.692 0-1.253-.557-1.253-1.255zM5.855 32.204c0-.693.562-1.254 1.253-1.254h35.136c.692 0 1.253.557 1.253 1.254 0 .693-.561 1.255-1.253 1.255H7.108c-.692 0-1.253-.557-1.253-1.255z" opacity=".22" transform="translate(-1094 -565) translate(1021 499) translate(73 66) translate(2.51 13.384)"/>
                            <path fill="#FFF" d="M5.855 22.167c0-.693.562-1.255 1.253-1.255h35.136c.692 0 1.253.557 1.253 1.255 0 .693-.561 1.254-1.253 1.254H7.108c-.692 0-1.253-.557-1.253-1.254z" transform="translate(-1094 -565) translate(1021 499) translate(73 66) translate(2.51 13.384)"/>
                        </g>
                    </g>
                    <g fill="#FFF" fill-rule="nonzero">
                        <path d="M.5 9h3c.276 0 .5.224.5.5v6c0 .276-.224.5-.5.5h-3c-.276 0-.5-.224-.5-.5v-6c0-.276.224-.5.5-.5zM6.5 5h3c.276 0 .5.224.5.5v10c0 .276-.224.5-.5.5h-3c-.276 0-.5-.224-.5-.5v-10c0-.276.224-.5.5-.5zM12.5 0h3c.276 0 .5.224.5.5v15c0 .276-.224.5-.5.5h-3c-.276 0-.5-.224-.5-.5V.5c0-.276.224-.5.5-.5z" transform="translate(-1094 -565) translate(1021 499) translate(73 66) translate(198 44)"/>
                    </g>
                    <g transform="translate(-1094 -565) translate(1021 499) translate(73 66) translate(74 24)">
                        <path fill="#E4897B" fill-rule="nonzero" d="M85.216 27.425c-.177.523-.347.973-.534 1.448-.187.474-.38.932-.582 1.385-.405.925-.855 1.83-1.344 2.723-.494.907-1.043 1.784-1.642 2.626-.627.89-1.347 1.713-2.147 2.453-.215.19-.433.38-.676.557-.128.094-.222.173-.378.274-.155.1-.304.19-.467.277-.67.355-1.42.535-2.18.523-.694-.014-1.379-.17-2.012-.457-.546-.25-1.062-.564-1.534-.935-.84-.676-1.588-1.458-2.224-2.328-.315-.409-.596-.842-.866-1.275-.27-.433-.513-.863-.752-1.351l1.61-1.001c.278.322.597.693.908 1.011.312.32.641.648.967.956.619.595 1.3 1.12 2.033 1.566.693.402 1.386.603 1.805.534.209-.031.408-.11.582-.229l.146-.11c.041-.032.128-.115.194-.167.138-.118.277-.256.412-.395 1.15-1.3 2.113-2.753 2.861-4.32.42-.807.8-1.642 1.174-2.483.184-.42.364-.846.534-1.272.17-.426.346-.87.492-1.257l3.62 1.247z"/>
                        <path fill="#407BFF" fill-rule="nonzero" d="M86.255 26.185c.54 2.352-4.618 8.365-4.618 8.365L77 31.176c1.027-1.948 2.26-3.78 3.679-5.466 2.113-2.414 4.981-2.106 5.577.475z"/>
                        <path fill="#1787EB" d="M86.255 26.185c.54 2.352-4.618 8.365-4.618 8.365L77 31.176c1.027-1.948 2.26-3.78 3.679-5.466 2.113-2.414 4.981-2.106 5.577.475z"/>
                        <path fill="#407BFF" fill-rule="nonzero" d="M97.544 25.835c-.914 2.67-1.627 5.405-2.134 8.182-.363 1.936-.627 3.79-.824 5.473-.464 3.946-.572 6.97-.755 7.985l-13.378-1.801c-.908-14.446 3.062-21.602 3.062-21.602 1.076-.13 2.159-.194 3.242-.19.229 0 .46 0 .693.016 1.91.146 3.808.402 5.688.766.346.066.717.142 1.067.222 1.784.402 3.34.949 3.34.949z"/>
                        <path fill="#1787EB" d="M97.544 25.835c-.914 2.67-1.627 5.405-2.134 8.182-.363 1.936-.627 3.79-.824 5.473-.464 3.946-.572 6.97-.755 7.985l-13.378-1.801c-.908-14.446 3.062-21.602 3.062-21.602 1.076-.13 2.159-.194 3.242-.19.229 0 .46 0 .693.016 1.91.146 3.808.402 5.688.766.346.066.717.142 1.067.222 1.784.402 3.34.949 3.34.949z"/>
                        <path fill="#407BFF" fill-rule="nonzero" d="M95.41 34.017c-.363 1.936-.627 3.79-.824 5.473l-1.808-4.177 2.632-1.296z"/>
                        <path fill="#0B5291" fill-rule="nonzero" d="M95.41 34.017c-.363 1.936-.627 3.79-.824 5.473l-1.808-4.177 2.632-1.296z" opacity=".5"/>
                        <path fill="#E4897B" fill-rule="nonzero" d="M73.784 101.947L71.401 101.119 72.679 95.376 75.063 96.204zM96.716 103.302L94.195 103.302 92.227 97.454 94.752 97.454z"/>
                        <path fill="#CE6F64" fill-rule="nonzero" d="M72.679 95.379L72.018 98.338 74.404 99.165 75.063 96.204zM94.752 97.458L92.227 97.458 93.242 100.471 95.767 100.471z"/>
                        <path fill="#407BFF" fill-rule="nonzero" d="M71.314 97.478l4.043 1.386s3.952-15.588 5.196-23.358c.374-2.363 1.22-5.633 2.238-9.124 1.282-4.4 2.844-9.145 4.112-12.859 1.34-3.91 2.345-6.675 2.345-6.675l-8.795-1.185s-6.7 20.542-7.455 28.208c-.79 7.981-1.684 23.607-1.684 23.607z"/>
                        <path fill="#000" fill-rule="nonzero" d="M71.314 97.478l4.043 1.386s3.952-15.588 5.196-23.358c.374-2.363 1.22-5.633 2.238-9.124 1.282-4.4 2.844-9.145 4.112-12.859 1.34-3.91 2.345-6.675 2.345-6.675l-8.795-1.185s-6.7 20.542-7.455 28.208c-.79 7.981-1.684 23.607-1.684 23.607z" opacity=".6"/>
                        <path fill="#000" fill-rule="nonzero" d="M82.79 66.392c1.283-4.4 2.845-9.145 4.113-12.859l-.787-2.033c-2.359 2.463-3.47 10.486-3.325 14.892z" opacity=".4"/>
                        <path fill="#407BFF" fill-rule="nonzero" d="M85.195 46.314s-.433 21.623.16 28.994c.65 8.072 6.699 24.595 6.699 24.595h4.624s-3.086-15.106-4.032-22.946c-1.077-8.93 1.181-29.465 1.181-29.465l-8.632-1.178z"/>
                        <path fill="#000" fill-rule="nonzero" d="M85.195 46.314s-.433 21.623.16 28.994c.65 8.072 6.699 24.595 6.699 24.595h4.624s-3.086-15.106-4.032-22.946c-1.077-8.93 1.181-29.465 1.181-29.465l-8.632-1.178z" opacity=".6"/>
                        <path fill="#263238" fill-rule="nonzero" d="M93.855 103.007h3.08c.103 0 .192.073.214.173l.5 2.245c.022.11-.006.226-.078.313s-.18.136-.293.134c-.991-.017-1.712-.073-2.959-.073-.769 0-3.083.08-4.14.08-1.056 0-1.198-1.04-.765-1.143 1.943-.426 3.409-1.012 4.032-1.573.113-.1.258-.155.409-.156zM71.512 100.849l2.605.9c.098.035.16.133.149.236l-.263 2.283c-.013.112-.076.213-.172.272-.096.06-.214.072-.32.033-.932-.347-2.273-.866-3.464-1.275-1.386-.478-2.598-.814-4.22-1.386-.976-.346-.907-1.423-.464-1.385 2.006.239 3.544.72 5.501.284.215-.047.44-.034.648.038z"/>
                        <path fill="#E4897B" fill-rule="nonzero" d="M69.496 33.352l1.018-2.564-3.221-.11c-.43.972-.178 2.11.623 2.809l1.58-.135z"/>
                        <path fill="#E4897B" fill-rule="nonzero" d="M70.864 29.063L68.339 29.552 67.293 30.678 70.514 30.788z"/>
                        <path fill="#FFDF78" d="M86.837 34.405c-.516-.002-1.012-.202-1.386-.558-.57-.576-.86-1.374-.793-2.182.073-1.628 1.264-3.08 2.65-3.232.6-.072 1.202.126 1.642.54.571.577.861 1.374.793 2.183-.073 1.631-1.264 3.083-2.65 3.235-.085.01-.17.015-.256.014zm.693-5.64h-.201c-1.223.136-2.276 1.442-2.345 2.907-.06.708.192 1.407.692 1.912.366.347.868.514 1.369.454 1.223-.139 2.276-1.441 2.345-2.907.058-.708-.195-1.408-.693-1.915-.314-.298-.73-.464-1.164-.464l-.003.013z"/>
                        <path fill="#E4897B" fill-rule="nonzero" d="M93.44 18.183c-.603 1.784-1.414 5.089-.299 6.481-1.3 1.036-2.986 1.457-4.62 1.154-1.57-.246-1.5-1.358-1.068-1.92 2.107-.21 2.259-1.732 2.079-3.204l3.907-2.511z"/>
                        <path fill="#CE6F64" fill-rule="nonzero" d="M91.853 19.208l-2.304 1.486c.043.345.055.693.038 1.04.797 0 1.982-.721 2.176-1.525.091-.325.122-.664.09-1z"/>
                        <path fill="#263238" fill-rule="nonzero" d="M88.808 11.033c-1.954-.16-2.633 4.548-1.413 5.452 1.219.905 5.074-5.154 1.413-5.452z"/>
                        <path fill="#E4897B" fill-rule="nonzero" d="M94.028 15.46c-.485 2.456-.644 3.921-2.078 5.023-2.141 1.66-5.047.114-5.304-2.425-.232-2.3.603-5.93 3.16-6.582 1.142-.303 2.36.006 3.22.817.859.811 1.238 2.01 1.002 3.167z"/>
                        <path fill="#263238" fill-rule="nonzero" d="M93.53 17.864c-1.213.755-2.377-5.955.983-5.799 4.119.194 1.59 4.216-.984 5.8z"/>
                        <path fill="#263238" fill-rule="nonzero" d="M94.416 13.26c-1.614-.897-4.025.229-5.677-.557-1.653-.787-4.486-.097-3.156-2.505.402.693 2.127.735 3.024-.25.897-.983 2.078-1.267 2.771-.19.693 1.078 2.616-1.077 4.254.309 1.42 1.188 1.22 4.548-1.216 3.193z"/>
                        <path fill="#263238" fill-rule="nonzero" d="M95.743 12.692s1.462-.048 1.732-.807c.017.748-.346 1.24-1.732.807z"/>
                        <path fill="#E4897B" fill-rule="nonzero" d="M94.78 18.36c-.405.482-.984.786-1.61.845-.832.066-1.092-.714-.728-1.417.325-.634 1.153-1.43 1.922-1.17.341.12.598.405.682.757.084.352-.016.723-.266.984z"/>
                        <path fill="#1787EB" d="M91.499 99.986L96.945 99.986 96.945 98.358 90.859 98.254zM70.778 97.395L75.589 99.062 76.126 97.51 70.774 95.563z"/>
                        <circle cx="89.93" cy="15.609" r="1" fill="#263238" fill-rule="nonzero" transform="rotate(-82.33 89.93 15.609)"/>
                        <path fill="#263238" fill-rule="nonzero" d="M87.897 15.339c-.028.2-.156.346-.288.346-.131 0-.218-.194-.19-.398.028-.205.156-.347.287-.347.132 0 .219.198.19.399z"/>
                        <path fill="#DE5753" fill-rule="nonzero" d="M88.607 15.536c-.323.585-.725 1.122-1.195 1.597.252.237.596.35.939.309l.256-1.906z"/>
                        <path fill="#263238" fill-rule="nonzero" d="M89.13 18.096c-.09.001-.178-.005-.267-.017-.031-.005-.054-.034-.052-.066.006-.033.036-.056.07-.052.507.079 1.021-.088 1.385-.45.024-.024.063-.024.087 0 .023.023.023.06 0 .083-.323.325-.764.507-1.223.502zM90.98 15.003c-.043 0-.083-.022-.104-.06-.14-.265-.396-.45-.693-.498-.047.004-.093-.02-.116-.062-.023-.042-.02-.094.01-.132.028-.038.077-.056.123-.045.381.051.715.282.898.62.016.028.02.06.012.091-.009.03-.03.057-.057.072-.022.013-.048.017-.073.014zM87.02 14.42c-.021.006-.044.006-.065 0-.055-.036-.07-.11-.035-.165.206-.326.557-.533.942-.555.066.002.118.056.118.122 0 .065-.053.117-.118.117-.303.022-.578.188-.738.447-.027.028-.065.04-.104.035z"/>
                        <path fill="#407BFF" fill-rule="nonzero" d="M93.024 103.91c-.173.022-.346-.058-.489-.226-.092-.132-.138-.337-.121-.541 0-.122.038-.234.1-.291.281-.238 1.095.594 1.185.713.02.022.03.06.028.1-.003.043-.021.076-.045.084-.215.099-.436.153-.658.16zm-.378-.898c-.025-.01-.051-.01-.076 0-.017 0-.035.042-.038.119-.012.14.018.28.08.374.282.22.603.247.897.078-.264-.284-.557-.477-.863-.57zM93.954 103.36h-.038c-.36-.142-1.06-.692-.988-.976.025-.091.136-.157.264-.156.128-.014.258.014.355.076.402.239.48.966.48.998.004.021-.01.043-.034.055-.013.003-.026.004-.039.003zm-.705-1.039h-.038c-.106 0-.115.045-.12.06-.043.165.403.584.762.782-.026-.287-.17-.562-.412-.79-.056-.029-.123-.042-.192-.038v-.014zM71.165 101.246c-.408-.068-1.125-.232-1.305-.604-.05-.113-.05-.247 0-.36.023-.07.077-.122.142-.136.346-.076 1.136.876 1.226.984.013.023.013.053 0 .076-.012.027-.037.043-.063.04zm-1.14-.964h-.023c-.025.008-.046.029-.056.056-.034.074-.034.163 0 .236.1.212.485.4 1.04.504-.32-.36-.76-.796-.96-.796zM71.519 101.098c-.026 0-.05-.006-.068-.017-.393-.229-1.028-.942-.809-1.195.05-.062.169-.125.433-.087.189.027.352.101.45.205.202.332.232.696.084 1.039-.008.02-.032.035-.062.042l-.028.013zm-.59-1.191c-.047-.004-.094.01-.118.034-.13.153.27.693.646.97.11-.28.076-.576-.096-.845-.072-.076-.192-.13-.331-.149l-.101-.01z"/>
                        <path fill="#E4897B" fill-rule="nonzero" d="M98.944 28.772c-.045.513-.097.967-.167 1.438-.069.471-.142.935-.221 1.386-.167.931-.364 1.856-.603 2.77-.239.915-.523 1.837-.852 2.751l-.256.693-.291.693c-.09.225-.205.45-.316.693l-.163.346-.041.087-.073.135c-.052.098-.11.192-.173.284-.385.537-.87.995-1.427 1.35-.444.29-.907.55-1.386.777-.876.413-1.778.767-2.702 1.06-1.782.57-3.606 1-5.456 1.285l-.478-1.832c1.642-.659 3.305-1.365 4.878-2.114.767-.361 1.515-.762 2.24-1.202.327-.196.64-.415.936-.654.2-.15.371-.334.506-.544l.028-.073.11-.284c.077-.19.153-.378.215-.578l.201-.59.184-.602c.232-.81.443-1.639.623-2.484s.347-1.697.485-2.553c.139-.855.27-1.732.378-2.55l3.82.312z"/>
                        <path fill="#407BFF" fill-rule="nonzero" d="M99.418 27.266c1.414 1.957-.218 7.991-.218 7.991l-6.623.211c.33-2.344.837-4.66 1.517-6.928 1.053-3.235 3.592-3.647 5.324-1.274z"/>
                        <path fill="#1787EB" d="M99.418 27.266c1.414 1.957-.218 7.991-.218 7.991l-6.623.211c.33-2.344.837-4.66 1.517-6.928 1.053-3.235 3.592-3.647 5.324-1.274z"/>
                        <path fill="#BAA46C" d="M50.523 4.313c-4.685-2.032-9.736-3.084-14.843-3.09-18.013 0-32.261 13.1-34.222 30.293l2.235-1.077 33.947 7.156L50.523 4.313z"/>
                        <path fill="#407BFF" fill-rule="nonzero" d="M52.754 3.235C48.067 1.202 43.013.151 37.904.145 19.89.145 5.643 13.247 3.682 30.44l36.193 6.079 12.88-33.283z"/>
                        <path fill="#FFD873" d="M52.754 3.235C48.067 1.202 43.013.151 37.904.145 19.89.145 5.643 13.247 3.682 30.44l36.193 6.079 12.88-33.283z"/>
                        <path fill="#407BFF" fill-rule="nonzero" d="M57.503 1.777L44.617 35.06l32.011 19.052 2.235-1.077s2.473-11.56 2.127-17.99C80.21 20.706 59.73.686 59.73.686l-2.227 1.092z"/>
                        <path fill="#6ED098" d="M57.503 1.777L44.617 35.06l32.011 19.052 2.235-1.077s2.473-11.56 2.127-17.99C80.21 20.706 59.73.686 59.73.686l-2.227 1.092z"/>
                        <path fill="#407BFF" fill-rule="nonzero" d="M59.73.693l-12.882 33.29 32.015 19.052c3.24-5.805 4.752-12.416 4.357-19.053-.803-14.864-10.413-27.64-23.49-33.29z"/>
                        <path fill="#91EEB8" d="M59.73.693l-12.882 33.29 32.015 19.052c3.24-5.805 4.752-12.416 4.357-19.053-.803-14.864-10.413-27.64-23.49-33.29z"/>
                        <path fill="#FAFAFA" fill-rule="nonzero" d="M78.031 50.229c-.014.004-.03.004-.045 0l-28.61-17.04c-.036-.022-.05-.068-.034-.107l11.431-29.57c.009-.023.027-.042.05-.051.023-.01.05-.008.072.003 5.782 2.918 10.709 7.288 14.296 12.682 3.577 5.343 5.66 11.545 6.03 17.965.318 5.536-.753 11.063-3.117 16.08-.01.023-.03.041-.055.048l-.018-.01zM49.536 33.057L78 50.011c2.324-4.97 3.375-10.438 3.059-15.914-.693-12.852-8.414-24.515-20.147-30.456L49.536 33.057zM38.548 34.273L6.01 28.811c-.022-.005-.042-.017-.055-.035-.009-.021-.009-.045 0-.066 1.27-7.463 5.148-14.233 10.943-19.104 5.918-4.868 13.353-7.51 21.016-7.469 4.165 0 8.297.74 12.204 2.183.023.005.04.022.048.045.01.022.01.047 0 .069l-11.528 29.79c-.016.035-.053.055-.09.05zm-32.42-5.618l32.365 5.435L49.962 4.45c-3.864-1.416-7.947-2.14-12.062-2.14-15.986 0-29.042 10.828-31.772 26.344z" opacity=".4" style="mix-blend-mode:color-dodge"/>
                        <path fill="#407BFF" fill-rule="nonzero" d="M37.64 37.595L3.693 30.44l-2.245 1.084c-.23 2.018-.289 4.051-.177 6.08 1.088 20.09 18.256 36.372 38.344 36.372 13.094 0 24.196-6.928 30.037-17.32L37.64 37.595z"/>
                        <path fill="#B2827F" d="M37.64 37.595L3.693 30.44l-2.245 1.084c-.23 2.018-.289 4.051-.177 6.08 1.088 20.09 18.256 36.372 38.344 36.372 13.094 0 24.196-6.928 30.037-17.32L37.64 37.595z"/>
                        <path fill="#407BFF" fill-rule="nonzero" d="M39.875 36.518l-36.193-6.08c-.229 2.019-.29 4.052-.18 6.08C4.593 56.61 21.758 72.891 41.846 72.891c13.097 0 24.2-6.929 30.04-17.32L39.875 36.517z"/>
                        <path fill="#FAC0BC" d="M39.875 36.518l-36.193-6.08c-.229 2.019-.29 4.052-.18 6.08C4.593 56.61 21.758 72.891 41.846 72.891c13.097 0 24.2-6.929 30.04-17.32L39.875 36.517z"/>
                        <path fill="#FAFAFA" fill-rule="nonzero" d="M41.846 70.899c-19.014 0-35.334-15.474-36.373-34.488-.06-1.183-.06-2.368 0-3.551 0-.025.011-.048.031-.062.019-.018.045-.026.07-.021l33.577 5.64h.027L69.06 56.214c.021.012.036.032.042.055.008.021.008.045 0 .066-2.906 4.492-6.902 8.176-11.615 10.707-4.818 2.549-10.19 3.873-15.64 3.856zM5.65 32.964c-.052 1.143-.049 2.297 0 3.436 1.04 18.924 17.258 34.326 36.182 34.326 11.24 0 21.1-5.248 27.058-14.397L39.099 38.586l-33.45-5.622z" opacity=".4" style="mix-blend-mode:color-dodge"/>
                        <path fill="#B2827F" fill-rule="nonzero" d="M.575 42.178c-.26-1.49-.432-2.993-.516-4.503l.346-.02c.081 1.5.251 2.994.51 4.475l-.34.048zM1.386 45.725c-.194-.692-.371-1.427-.523-2.137l.346-.073c.152.693.326 1.417.516 2.12l-.34.09z"/>
                        <path fill="#E4897B" fill-rule="nonzero" d="M85.015 42.653l-2.474-.665.537 3.176s2.231.1 2.425-1.077l-.488-1.434z"/>
                        <path fill="#E4897B" fill-rule="nonzero" d="M80.595 42.795L81.163 45.403 83.078 45.164 82.541 41.988z"/>
                    </g>
                </g>
            </g>
        </g>
    </g>
</svg>
