<svg width="30" height="30" viewBox="0 0 30 30" xmlns="http://www.w3.org/2000/svg">
    <g fill="none" fill-rule="evenodd">
        <rect fill="#EBF2FB" width="30" height="30" rx="5"/>
        <path d="M20.363 10.593c1.42 1.94 2.637 3.35 2.637 6.226 0 4.477-3.535 8.125-7.901 8.18a3.77 3.77 0 0 1-.198 0C10.535 24.944 7 21.296 7 16.819c0-.71.09-1.416.266-2.098l.322-1.242a9.082 9.082 0 0 0 1.635 1.066c.592.303.953.387 1.08.25.136-1.568.276-2.869.421-3.903.48-3.408 2.532-5.373 6.154-5.892l-.25.94c-.591 2.217-.473 3.659-.27 4.478.217.879.78 1.719 1.31 1.855 1.186.303 1.885-.528 2.1-2.493l.595.813z" fill="#115EB4"/>
        <path d="M15.25 20c-1.324 0-2.25-.914-2.25-2.222 0-.316.108-1.441 2.25-3.778 2.142 2.337 2.25 3.462 2.25 3.778 0 1.308-.926 2.222-2.25 2.222z" fill="#FFF" fill-rule="nonzero"/>
    </g>
</svg>
